<svg width="740" height="135" viewBox="0 0 740 135" fill="none" xmlns="http://www.w3.org/2000/svg">
<path d="M105.24 20.68L66.36 95.88V133H39V95.88L0.119995 20.68H31.16L52.92 67.72L74.52 20.68H105.24Z" fill="white"/>
<path d="M155.784 134.12C145.224 134.12 135.517 131.667 126.664 126.76C117.917 121.853 110.93 115.027 105.704 106.28C100.584 97.4266 98.0238 87.5066 98.0238 76.52C98.0238 65.5333 100.584 55.6666 105.704 46.92C110.93 38.1733 117.917 31.3466 126.664 26.44C135.517 21.5333 145.224 19.08 155.784 19.08C166.344 19.08 175.997 21.5333 184.744 26.44C193.597 31.3466 200.53 38.1733 205.544 46.92C210.664 55.6666 213.224 65.5333 213.224 76.52C213.224 87.5066 210.664 97.4266 205.544 106.28C200.424 115.027 193.49 121.853 184.744 126.76C175.997 131.667 166.344 134.12 155.784 134.12ZM155.784 109.16C164.744 109.16 171.89 106.173 177.224 100.2C182.664 94.2266 185.384 86.3333 185.384 76.52C185.384 66.6 182.664 58.7066 177.224 52.84C171.89 46.8666 164.744 43.88 155.784 43.88C146.717 43.88 139.464 46.8133 134.024 52.68C128.69 58.5466 126.024 66.4933 126.024 76.52C126.024 86.44 128.69 94.3866 134.024 100.36C139.464 106.227 146.717 109.16 155.784 109.16Z" fill="white"/>
<path d="M278.365 134.12C267.805 134.12 258.098 131.667 249.245 126.76C240.498 121.853 233.512 115.027 228.285 106.28C223.165 97.4266 220.605 87.5066 220.605 76.52C220.605 65.5333 223.165 55.6666 228.285 46.92C233.512 38.1733 240.498 31.3466 249.245 26.44C258.098 21.5333 267.805 19.08 278.365 19.08C288.925 19.08 298.578 21.5333 307.325 26.44C316.178 31.3466 323.112 38.1733 328.125 46.92C333.245 55.6666 335.805 65.5333 335.805 76.52C335.805 87.5066 333.245 97.4266 328.125 106.28C323.005 115.027 316.072 121.853 307.325 126.76C298.578 131.667 288.925 134.12 278.365 134.12ZM278.365 109.16C287.325 109.16 294.472 106.173 299.805 100.2C305.245 94.2266 307.965 86.3333 307.965 76.52C307.965 66.6 305.245 58.7066 299.805 52.84C294.472 46.8666 287.325 43.88 278.365 43.88C269.298 43.88 262.045 46.8133 256.605 52.68C251.272 58.5466 248.605 66.4933 248.605 76.52C248.605 86.44 251.272 94.3866 256.605 100.36C262.045 106.227 269.298 109.16 278.365 109.16Z" fill="white"/>
<path d="M444.306 133H416.946L371.186 63.72V133H343.826V20.68H371.186L416.946 90.28V20.68H444.306V133Z" fill="white"/>
<path d="M529.259 113.16H487.339L480.619 133H451.979L492.619 20.68H524.299L564.939 133H535.979L529.259 113.16ZM522.219 92.04L508.299 50.92L494.539 92.04H522.219Z" fill="white"/>
<path d="M568.307 48.76H589.307L575.867 80.92H562.068L568.307 48.76Z" fill="white"/>
<path d="M620.802 133.96C614.962 133.96 609.762 132.96 605.202 130.96C600.642 128.96 597.042 126.24 594.402 122.8C591.762 119.28 590.282 115.36 589.962 111.04H610.242C610.482 113.36 611.562 115.24 613.482 116.68C615.402 118.12 617.762 118.84 620.562 118.84C623.122 118.84 625.082 118.36 626.442 117.4C627.882 116.36 628.602 115.04 628.602 113.44C628.602 111.52 627.602 110.12 625.602 109.24C623.602 108.28 620.362 107.24 615.882 106.12C611.082 105 607.082 103.84 603.882 102.64C600.682 101.36 597.922 99.4 595.602 96.76C593.282 94.04 592.122 90.4 592.122 85.84C592.122 82 593.162 78.52 595.242 75.4C597.402 72.2 600.522 69.68 604.602 67.84C608.762 66 613.682 65.08 619.362 65.08C627.762 65.08 634.362 67.16 639.162 71.32C644.042 75.48 646.842 81 647.562 87.88H628.602C628.282 85.56 627.242 83.72 625.482 82.36C623.802 81 621.562 80.32 618.762 80.32C616.362 80.32 614.522 80.8 613.242 81.76C611.962 82.64 611.322 83.88 611.322 85.48C611.322 87.4 612.322 88.84 614.322 89.8C616.402 90.76 619.602 91.72 623.922 92.68C628.882 93.96 632.922 95.24 636.042 96.52C639.162 97.72 641.882 99.72 644.202 102.52C646.602 105.24 647.842 108.92 647.922 113.56C647.922 117.48 646.802 121 644.562 124.12C642.402 127.16 639.242 129.56 635.082 131.32C631.002 133.08 626.242 133.96 620.802 133.96Z" fill="white"/>
<path d="M623.64 25.8113C623.69 26.0949 622.549 27.8234 620.216 30.9966C619.354 32.1884 618.604 33.5554 617.966 35.0976C617.354 36.6027 617.148 37.9225 617.348 39.057C617.548 40.1915 618.065 41.1889 618.899 42.0491C619.759 42.8723 620.628 43.4665 621.505 43.8319C622.407 44.1601 623.231 44.5022 623.976 44.8582C624.753 45.2087 625.169 45.5415 625.225 45.8566C625.364 46.6445 624.803 47.1495 623.542 47.3718C622.313 47.5885 620.71 47.1564 618.732 46.0754C616.78 44.9573 615.447 43.5678 614.731 41.9068C614.518 41.6194 614.339 41.3422 614.195 41.0753C612.563 44.3524 611.359 46.6444 610.582 47.9511C609.831 49.2208 609.219 49.8973 608.747 49.9807C608.274 50.064 607.69 49.7933 606.995 49.1685C606.294 48.5122 605.902 47.9477 605.819 47.475C605.73 46.9708 605.876 44.8492 606.256 41.1103C606.663 37.3344 606.929 32.8521 607.054 27.6636C607.21 22.4696 606.941 17.9029 606.246 13.9637C606.157 13.4595 606.159 13.1017 606.252 12.8904C606.376 12.6735 606.675 12.5234 607.147 12.4401C607.62 12.3567 608.286 12.7266 609.146 13.5498C610.001 14.3414 610.506 15.1784 610.661 16.0608C611.156 18.8656 611.281 22.8891 611.035 28.1313C610.79 33.3736 610.279 38.4026 609.504 43.2185C612.17 37.5168 614.52 32.8782 616.554 29.3027C618.614 25.6901 619.944 23.831 620.543 23.7254C621.173 23.6143 621.824 23.8081 622.497 24.3069C623.17 24.8056 623.551 25.3071 623.64 25.8113Z" fill="white"/>
<path d="M628.376 15.4231C628.265 14.7928 628.411 14.1496 628.815 13.4934C629.22 12.8373 629.674 12.4647 630.178 12.3758C630.714 12.2814 631.458 12.8163 632.411 13.9805C633.358 15.1133 633.906 16.1051 634.056 16.956C634.112 17.2711 634.02 17.5797 633.781 17.8819C633.542 18.184 633.265 18.3628 632.95 18.4184C632.193 18.5517 631.262 18.2448 630.155 17.4976C629.08 16.7449 628.487 16.0534 628.376 15.4231ZM629.323 22.1772C629.922 22.0716 630.553 22.334 631.217 22.9644C631.88 23.5947 632.273 24.2565 632.395 24.9499C632.518 25.6432 632.427 27.8036 632.125 31.4313C631.816 35.0275 631.347 39.0907 630.716 43.6211C630.458 45.2913 629.919 46.1986 629.1 46.3431C628.659 46.4209 628.25 46.3142 627.874 46.0231C627.492 45.7005 627.262 45.3186 627.185 44.8774C627.101 44.4047 627.084 43.6605 627.132 42.6446C627.206 41.5917 627.32 40.207 627.472 38.4905C627.65 36.7369 627.773 35.3179 627.842 34.2335C627.942 33.1436 628.02 31.9275 628.076 30.5855C628.126 29.2119 628.161 28.1173 628.18 27.3016C628.224 26.4489 628.285 25.5934 628.361 24.7352C628.53 23.1132 628.85 22.2606 629.323 22.1772Z" fill="white"/>
<path d="M642.422 39.1687C642.528 39.7675 642.927 40.0057 643.62 39.8835C644.818 39.6723 646.209 39.0858 647.794 38.124C649.405 37.125 650.305 36.6089 650.495 36.5756C651.062 36.4756 651.398 36.7249 651.504 37.3237C651.665 38.2376 650.906 39.46 649.226 40.9909C647.578 42.5163 645.982 43.4151 644.437 43.6874C642.925 43.9541 641.592 43.7667 640.439 43.1252C639.281 42.4521 638.624 41.6744 638.468 40.792C638.312 39.9096 638.304 38.7575 638.443 37.3358C638.577 35.8825 638.793 33.976 639.092 31.6162C639.417 29.2194 639.653 27.2443 639.802 25.691C638.382 26.2988 637.42 26.6471 636.916 26.736C636.411 26.8249 635.863 26.6617 635.27 26.2464C634.702 25.794 634.377 25.3315 634.294 24.8588C634.16 24.1025 636.081 23.0165 640.056 21.6008C640.162 18.8851 640.037 16.5188 639.681 14.5019C639.515 13.5565 639.746 13.0282 640.377 12.9171C640.912 12.8226 641.635 13.0526 642.545 13.607C643.45 14.1299 643.977 14.8167 644.127 15.6676C644.277 16.5185 644.273 18.0626 644.115 20.3C645.884 19.8257 647.304 19.4941 648.375 19.3052C650.266 18.9718 651.284 19.2148 651.428 20.0341C651.512 20.5068 651.061 20.9924 650.077 21.4909C649.124 21.9839 647.067 22.8502 643.906 24.0899C643.684 26.6962 643.351 29.6955 642.91 33.0877C642.462 36.4484 642.3 38.4754 642.422 39.1687Z" fill="white"/>
<path d="M662.907 40.4307C661.079 40.753 659.237 40.3468 657.379 39.2121C655.517 38.0458 654.413 36.4858 654.068 34.5319C653.718 32.5465 653.977 30.1451 654.845 27.3276C655.713 24.5101 657.026 22.004 658.784 19.8095C660.573 17.6094 662.46 16.3343 664.445 15.9842C665.737 15.7564 666.975 16.1394 668.157 17.1331C669.34 18.1269 670.009 19.0649 670.164 19.9473C670.209 20.1994 670.169 20.4339 670.045 20.6508C669.915 20.8361 669.692 20.9566 669.377 21.0122C669.094 21.0622 668.524 20.8702 667.667 20.4363C666.811 20.0025 666.083 19.8383 665.485 19.9439C663.783 20.2439 662.061 22.0909 660.32 25.4848C658.579 28.8787 657.906 31.6944 658.301 33.9319C658.473 34.9088 658.908 35.6281 659.607 36.0898C660.337 36.5459 661.38 36.6545 662.735 36.4156C664.122 36.1711 665.355 35.7912 666.434 35.2761C667.538 34.7238 668.378 34.2345 668.953 33.8083C669.522 33.3505 669.98 33.091 670.327 33.0299C670.925 32.9243 671.278 33.1709 671.383 33.7697C671.544 34.6836 670.63 35.9495 668.641 37.5675C666.678 39.1485 664.766 40.1029 662.907 40.4307Z" fill="white"/>
<path d="M674.836 2.40555C674.62 1.17651 674.889 0.495313 675.646 0.361951C676.244 0.256373 676.958 0.617945 677.787 1.44667C678.647 2.26984 679.154 3.12261 679.31 4.005C679.671 6.0534 679.768 9.64313 679.6 14.7742C679.459 19.8681 679.002 25.0177 678.23 30.2228C680.376 23.9631 682.282 19.3866 683.949 16.4932C685.642 13.5627 687.245 11.9641 688.757 11.6974C689.577 11.5529 690.647 12.0952 691.969 13.3244C693.322 14.5481 694.123 15.869 694.373 17.2871C694.623 18.7052 694.604 20.9018 694.317 23.877C693.619 31.3437 692.403 35.2298 690.67 35.5354C689.976 35.6577 689.546 35.2461 689.38 34.3007C689.213 33.3552 689.311 31.6971 689.672 29.3263C690.481 24.1471 690.736 20.7067 690.436 19.0049C690.336 18.4377 690.11 17.99 689.76 17.6618C689.41 17.3337 689.03 17.2057 688.62 17.2779C688.211 17.3502 687.745 17.6597 687.224 18.2065C686.703 18.7532 686.115 19.6531 685.458 20.9061C684.637 22.5132 683.799 24.3019 682.944 26.2723C682.121 28.2371 681.616 29.4308 681.431 29.8534C681.271 30.239 680.975 30.9573 680.543 32.0082C680.143 33.0537 679.842 33.8378 679.642 34.3605C679.436 34.8517 679.176 35.4013 678.861 36.0092C678.319 37.177 677.859 37.7942 677.481 37.8609C677.103 37.9276 676.538 37.6698 675.785 37.0877C675.027 36.474 674.606 35.9308 674.523 35.4581C674.434 34.9539 674.443 33.9936 674.551 32.5774C675.06 26.2489 675.322 21.9298 675.337 19.6201C675.531 11.1376 675.364 5.39937 674.836 2.40555Z" fill="white"/>
<path d="M715.91 15.0006C716.204 16.6708 715.532 18.2028 713.893 19.5966C712.28 20.9533 710.324 21.8344 708.023 22.2401C705.754 22.6401 703.645 22.752 701.697 22.5756C701.501 24.04 701.499 25.3237 701.694 26.4267C701.883 27.4982 702.361 28.275 703.128 28.757C703.927 29.2335 705.099 29.3357 706.643 29.0634C708.219 28.7855 709.779 28.2343 711.323 27.4096C712.893 26.5478 713.757 26.1031 713.914 26.0753C714.734 25.9308 715.199 26.1737 715.31 26.804C715.46 27.6549 714.663 28.754 712.919 30.1014C711.168 31.4173 709.38 32.2364 707.552 32.5587C705.094 32.9921 702.965 32.6201 701.165 31.4428C699.36 30.2339 698.26 28.5107 697.865 26.2732C697.471 24.0358 697.658 21.5982 698.428 18.9604C699.192 16.2912 700.372 13.9548 701.968 11.9511C703.565 9.94749 705.293 8.78174 707.152 8.4539C709.011 8.12605 710.853 8.71115 712.677 10.2092C714.532 11.7017 715.61 13.2988 715.91 15.0006ZM708.047 12.1466C706.881 12.3522 705.776 13.1807 704.732 14.632C703.683 16.0518 702.875 17.7376 702.309 19.6895C703.62 19.7508 705.079 19.6398 706.686 19.3564C708.293 19.073 709.651 18.5736 710.76 17.8583C711.863 17.1114 712.339 16.3125 712.189 15.4616C712.039 14.6107 711.493 13.8136 710.549 13.0701C709.637 12.3211 708.803 12.0133 708.047 12.1466Z" fill="white"/>
<path d="M723.317 21.2979C725.437 15.6277 727.222 11.3811 728.674 8.55814C730.152 5.69808 731.49 4.16246 732.687 3.95131C733.916 3.73459 735.18 4.17781 736.48 5.28095C737.811 6.37853 738.604 7.65214 738.859 9.10177C739.26 11.3708 739.229 14.2357 738.766 17.6965C737.943 24.0806 736.774 27.4059 735.262 27.6727C734.568 27.7949 734.138 27.3833 733.972 26.4379C733.855 25.7761 733.95 24.3784 734.256 22.2449C734.588 20.0742 734.865 17.962 735.088 15.9081C735.337 13.8171 735.375 12.2832 735.203 11.3063C735.025 10.2978 734.737 9.58502 734.338 9.16788C733.971 8.74518 733.63 8.56162 733.315 8.61718C733.031 8.66719 732.749 8.81452 732.467 9.05918C732.185 9.30383 731.878 9.68287 731.546 10.1963C731.246 10.7042 730.961 11.2093 730.693 11.7116C730.418 12.1824 730.083 12.8589 729.686 13.7413C729.32 14.618 729.014 15.3706 728.768 15.999C728.516 16.5958 728.15 17.4726 727.672 18.6292C727.193 19.7859 726.828 20.6626 726.576 21.2595C726.324 21.8563 725.995 22.6617 725.589 23.6756C725.182 24.6896 724.851 25.4792 724.593 26.0446C724.367 26.6043 724.101 27.2197 723.797 27.8907C723.215 29.1957 722.688 29.8898 722.215 29.9732C721.774 30.051 721.193 29.796 720.472 29.2083C719.745 28.589 719.334 28.0115 719.24 27.4758C719.212 27.3182 719.247 26.8733 719.346 26.1411C719.622 24.2078 719.887 21.8378 720.139 19.0313C720.386 16.1934 720.238 13.0513 719.696 9.60517C719.385 7.28799 719.513 6.07938 720.08 5.97936C720.773 5.85711 721.53 6.09728 722.352 6.69985C723.173 7.30242 723.661 8.0449 723.817 8.92728C723.967 9.77816 723.993 11.4956 723.897 14.0797C723.826 16.6267 723.633 19.0328 723.317 21.2979Z" fill="white"/>
</svg>
